<svg width="21" height="21" viewBox="0 0 21 21" fill="none" xmlns="http://www.w3.org/2000/svg">
<g clip-path="url(#clip0)">
<path d="M6.85884 17.6607C7.14493 17.9568 7.62108 17.9568 7.91718 17.6607C8.20327 17.3747 8.20327 16.8985 7.91718 16.6131L2.55081 11.2467L20.2591 11.2467C20.6719 11.246 21 10.9179 21 10.5051C21 10.0923 20.6719 9.75356 20.2591 9.75356L2.55081 9.75356L7.91718 4.3972C8.20327 4.1011 8.20327 3.62429 7.91718 3.33886C7.62109 3.04277 7.14427 3.04277 6.85884 3.33886L0.222069 9.97563C-0.0740254 10.2617 -0.0740255 10.7379 0.222069 11.0233L6.85884 17.6607Z" fill="#1E201D"/>
</g>
<defs>
<clipPath id="clip0">
<rect x="21" y="21" width="21" height="21" transform="rotate(-180 21 21)" fill="white"/>
</clipPath>
</defs>
</svg>
