<svg width="9" height="9" viewBox="0 0 9 9" fill="none" xmlns="http://www.w3.org/2000/svg">
<path d="M8.03546 0H3.85688C3.32432 0 2.8926 0.431725 2.8926 0.964285V2.89286C2.8926 3.07038 3.03651 3.21429 3.21403 3.21429C3.39156 3.21429 3.53547 3.07038 3.53547 2.89286V0.964285C3.53547 0.786759 3.67937 0.64285 3.8569 0.64285H8.03548C8.213 0.64285 8.35691 0.786759 8.35691 0.964285V8.03571C8.35691 8.21324 8.213 8.35715 8.03548 8.35715H3.85688C3.67936 8.35715 3.53545 8.21324 3.53545 8.03571V6.10714C3.53545 5.92962 3.39154 5.78571 3.21401 5.78571C3.03649 5.78571 2.89258 5.92962 2.89258 6.10714V8.03571C2.89258 8.56827 3.3243 9 3.85686 9H8.03544C8.568 9 8.99972 8.56827 8.99972 8.03571V0.964285C8.99974 0.431725 8.56802 0 8.03546 0Z" fill="#FFFBFB"/>
<path d="M6.42817 4.17838H1.09698L2.15545 3.11991C2.27877 2.99222 2.27523 2.78874 2.14754 2.66541C2.02297 2.54512 1.8255 2.54512 1.70096 2.66541L0.0938012 4.27255C0.0639498 4.30242 0.0403512 4.33792 0.0243802 4.37702C-0.00812674 4.45565 -0.00812674 4.54396 0.0243802 4.62259C0.0404265 4.66182 0.0641381 4.69744 0.0941214 4.72738L1.70126 6.33452C1.82458 6.46221 2.02806 6.46575 2.15575 6.34243C2.28344 6.2191 2.28698 6.01563 2.16366 5.88793C2.16108 5.88526 2.15844 5.88262 2.15575 5.88002L1.09698 4.82123H6.42819C6.60572 4.82123 6.74963 4.67732 6.74963 4.4998C6.74963 4.32227 6.6057 4.17838 6.42817 4.17838Z" fill="#FFFBFB"/>
</svg>
