<svg width="160" height="59" viewBox="0 0 160 59" fill="none" xmlns="http://www.w3.org/2000/svg">
<g clip-path="url(#clip0)">
<path fill-rule="evenodd" clip-rule="evenodd" d="M43 45.1319L46.4837 36.6389H47.769L50.8563 45.1319H49.7872L48.658 41.9605H45.3064L44.0451 45.1319H43ZM45.6067 41.1677H48.3937L47.0723 37.3357L45.6067 41.1677ZM52.0689 45.1319V38.573H53.0179V39.4499C53.3182 38.9574 53.9669 38.4288 54.8919 38.4288C55.2763 38.4288 55.5406 38.5009 55.6607 38.5369L55.5045 39.3418C55.3003 39.2937 55.1081 39.2577 54.7237 39.2577C53.9309 39.2577 53.3302 39.8223 53.0179 40.3028V45.1319H52.0689ZM59.4537 45.276C58.2284 45.276 57.4596 44.8556 57.4596 43.306V39.3778H56.4986V38.573H57.4596V37.2276H58.3845V38.573H60.4387V39.3778H58.3965V43.2699C58.3965 44.1949 58.817 44.4472 59.5738 44.4472C59.9342 44.4472 60.4027 44.3511 60.679 44.255L60.8471 45.0358C60.5108 45.1559 59.8981 45.276 59.4537 45.276ZM62.2006 45.1319V38.573H63.1616V45.1319H62.2006ZM62.6691 37.3477L61.8882 36.5428L62.6691 35.75L63.4739 36.5428L62.6691 37.3477ZM65.8167 47.5945V39.3418H64.8557V38.573H65.8167V38.1285C65.8167 36.5308 66.7657 35.9422 67.9429 35.9422C68.3994 35.9422 68.6877 35.9903 68.952 36.0743L68.7838 36.8432C68.6036 36.7951 68.3994 36.7471 67.9549 36.7471C67.1261 36.7471 66.7657 37.1315 66.7657 38.1165V38.573H68.1712V39.3418H66.7657V47.5945H65.8167ZM70.0318 45.1319V38.573H70.9928V45.1319H70.0318ZM70.5003 37.3477L69.7194 36.5428L70.5003 35.75L71.3051 36.5428L70.5003 37.3477ZM75.9173 45.276C73.695 45.276 72.6499 44.2189 72.6499 41.9846C72.6499 39.6301 73.8511 38.4048 75.7612 38.4048C76.578 38.4048 77.1786 38.621 77.503 38.8012L77.2147 39.558C76.9504 39.4499 76.4219 39.2337 75.7612 39.2337C74.3917 39.2337 73.6229 40.1106 73.6229 41.9365C73.6229 43.5582 74.2235 44.4592 76.0134 44.4592C76.59 44.4592 76.9384 44.3631 77.3468 44.255L77.491 45.0238C77.0946 45.1559 76.6501 45.276 75.9173 45.276ZM79.2932 45.1319V38.573H80.2542V45.1319H79.2932ZM79.7617 37.3477L78.9809 36.5428L79.7617 35.75L80.5665 36.5428L79.7617 37.3477ZM83.8497 45.24C82.6604 45.24 81.8916 44.5793 81.8916 43.3901C81.8916 41.7563 83.3331 41.42 84.4023 41.396L85.9639 41.3719V40.531C85.9639 39.4859 85.4714 39.2337 84.4383 39.2337C83.7296 39.2337 83.201 39.3538 82.6604 39.558L82.4442 38.8132C82.9487 38.597 83.6815 38.4048 84.5704 38.4048C86.012 38.4048 86.8889 38.9334 86.8889 40.2187V43.8465C86.8889 44.3391 87.2853 44.4472 87.5976 44.4472L87.5616 45.1799C87.5015 45.192 87.3814 45.204 87.2973 45.204C86.7207 45.204 86.1201 44.9637 86.036 44.3751C85.7116 44.6274 84.9789 45.24 83.8497 45.24ZM84.0659 44.4712C84.7867 44.4712 85.4714 44.0988 85.9639 43.7384V42.0326L84.3903 42.0927C83.3692 42.1287 82.8046 42.5852 82.8046 43.354C82.8046 44.1108 83.3451 44.4712 84.0659 44.4712ZM89.1149 45.1319V36.0743H90.0639V45.1319H89.1149ZM95.882 45.1319V36.6389H96.8671V45.1319H95.882ZM99.1488 45.1319V38.573H100.098V39.3178C100.783 38.8132 101.419 38.4048 102.44 38.4048C104.302 38.4048 104.422 39.7983 104.422 40.9034V45.1319H103.497V41.0836C103.497 39.9544 103.317 39.2457 102.2 39.2457C101.359 39.2457 100.686 39.6421 100.098 40.0505V45.1319H99.1488ZM108.815 45.276C107.59 45.276 106.821 44.8556 106.821 43.306V39.3778H105.86V38.573H106.821V37.2276H107.746V38.573H109.8V39.3778H107.758V43.2699C107.758 44.1949 108.178 44.4472 108.935 44.4472C109.296 44.4472 109.764 44.3511 110.04 44.255L110.208 45.0358C109.872 45.1559 109.259 45.276 108.815 45.276ZM114.313 45.276C112.403 45.276 111.202 44.4832 111.202 41.9846C111.202 39.4259 112.463 38.4048 114.061 38.4048C115.73 38.4048 116.487 39.4979 116.487 41.6843V42.0326H112.163C112.187 44.0628 113.22 44.4592 114.469 44.4592C115.106 44.4592 115.598 44.3511 116.211 44.1589L116.379 44.9277C115.886 45.1319 115.142 45.276 114.313 45.276ZM112.175 41.3239H115.502C115.502 39.9905 115.034 39.1496 113.964 39.1496C113.015 39.1496 112.283 39.8583 112.175 41.3239ZM118.321 45.1319V36.0743H119.27V45.1319H118.321ZM121.488 45.1319V36.0743H122.437V45.1319H121.488ZM124.656 45.1319V38.573H125.617V45.1319H124.656ZM125.124 37.3477L124.343 36.5428L125.124 35.75L125.929 36.5428L125.124 37.3477ZM129.921 47.8948C129.212 47.8948 128.371 47.7506 127.879 47.5344L128.071 46.6935C128.636 46.8857 129.296 47.0419 129.993 47.0419C130.954 47.0419 131.783 46.7296 131.783 45.3241V44.6634C131.314 45.0358 130.93 45.216 130.185 45.216C128.948 45.216 127.386 44.7475 127.386 41.9966C127.386 39.4379 128.756 38.4048 130.63 38.4048C131.242 38.4048 132.059 38.5249 132.708 38.6811V45.5283C132.708 47.126 131.627 47.8948 129.921 47.8948ZM130.281 44.4472C131.002 44.4472 131.411 44.1469 131.771 43.8585V39.4139C131.603 39.3658 131.158 39.2337 130.57 39.2337C128.876 39.2337 128.323 40.3749 128.323 41.9365C128.323 43.7384 129.068 44.4472 130.281 44.4472ZM137.565 45.276C135.655 45.276 134.453 44.4832 134.453 41.9846C134.453 39.4259 135.715 38.4048 137.312 38.4048C138.982 38.4048 139.739 39.4979 139.739 41.6843V42.0326H135.414C135.438 44.0628 136.472 44.4592 137.721 44.4592C138.358 44.4592 138.85 44.3511 139.463 44.1589L139.631 44.9277C139.138 45.1319 138.394 45.276 137.565 45.276ZM135.426 41.3239H138.754C138.754 39.9905 138.285 39.1496 137.216 39.1496C136.267 39.1496 135.535 39.8583 135.426 41.3239ZM141.573 45.1319V38.573H142.522V39.3178C143.207 38.8132 143.843 38.4048 144.864 38.4048C146.726 38.4048 146.846 39.7983 146.846 40.9034V45.1319H145.921V41.0836C145.921 39.9544 145.741 39.2457 144.624 39.2457C143.783 39.2457 143.111 39.6421 142.522 40.0505V45.1319H141.573ZM151.799 45.276C149.577 45.276 148.532 44.2189 148.532 41.9846C148.532 39.6301 149.733 38.4048 151.643 38.4048C152.46 38.4048 153.061 38.621 153.385 38.8012L153.097 39.558C152.832 39.4499 152.304 39.2337 151.643 39.2337C150.274 39.2337 149.505 40.1106 149.505 41.9365C149.505 43.5582 150.106 44.4592 151.895 44.4592C152.472 44.4592 152.82 44.3631 153.229 44.255L153.373 45.0238C152.977 45.1559 152.532 45.276 151.799 45.276ZM157.826 45.276C155.916 45.276 154.714 44.4832 154.714 41.9846C154.714 39.4259 155.976 38.4048 157.573 38.4048C159.243 38.4048 160 39.4979 160 41.6843V42.0326H155.675C155.699 44.0628 156.733 44.4592 157.982 44.4592C158.619 44.4592 159.111 44.3511 159.724 44.1589L159.892 44.9277C159.399 45.1319 158.655 45.276 157.826 45.276ZM155.687 41.3239H159.015C159.015 39.9905 158.546 39.1496 157.477 39.1496C156.528 39.1496 155.796 39.8583 155.687 41.3239Z" fill="white"/>
<path d="M52.7 24.7H48.3V32H44.525V14.55H48.3V21.625H52.7V14.55H56.475V32H52.7V24.7ZM66.2902 17.45C65.4569 17.45 64.8736 17.2833 64.5402 16.95C64.2236 16.6 64.0652 16.1833 64.0652 15.7V14.975C64.0652 14.475 64.2236 14.0583 64.5402 13.725C64.8736 13.3917 65.4569 13.225 66.2902 13.225C67.1236 13.225 67.6986 13.3917 68.0152 13.725C68.3486 14.0583 68.5152 14.475 68.5152 14.975V15.7C68.5152 16.1833 68.3486 16.6 68.0152 16.95C67.6986 17.2833 67.1236 17.45 66.2902 17.45ZM60.3402 29.125H64.4402V21.975H60.3402V19.1H68.1402V29.125H71.9402V32H60.3402V29.125ZM83.0207 32V14.55H86.7957V28.925H94.2957V32H83.0207ZM104.011 17.45C103.178 17.45 102.594 17.2833 102.261 16.95C101.944 16.6 101.786 16.1833 101.786 15.7V14.975C101.786 14.475 101.944 14.0583 102.261 13.725C102.594 13.3917 103.178 13.225 104.011 13.225C104.844 13.225 105.419 13.3917 105.736 13.725C106.069 14.0583 106.236 14.475 106.236 14.975V15.7C106.236 16.1833 106.069 16.6 105.736 16.95C105.419 17.2833 104.844 17.45 104.011 17.45ZM98.0609 29.125H102.161V21.975H98.0609V19.1H105.861V29.125H109.661V32H98.0609V29.125ZM112.551 29.125H115.526V21.975H112.551V19.1H119.226V22.75H119.401C119.518 22.2833 119.676 21.8333 119.876 21.4C120.093 20.95 120.36 20.5583 120.676 20.225C121.01 19.875 121.41 19.6 121.876 19.4C122.343 19.2 122.893 19.1 123.526 19.1H124.751V22.5H122.001C121.085 22.5 120.393 22.775 119.926 23.325C119.46 23.8583 119.226 24.5167 119.226 25.3V29.125H123.476V32H112.551V29.125ZM137.866 32C137.1 32 136.483 31.8083 136.016 31.425C135.55 31.025 135.275 30.4583 135.191 29.725H135.066C134.833 30.575 134.366 31.2167 133.666 31.65C132.983 32.0833 132.141 32.3 131.141 32.3C129.891 32.3 128.883 31.9667 128.116 31.3C127.366 30.6167 126.991 29.6667 126.991 28.45C126.991 27.1 127.483 26.1 128.466 25.45C129.45 24.8 130.891 24.475 132.791 24.475H134.866V23.825C134.866 23.0583 134.683 22.4833 134.316 22.1C133.966 21.7 133.366 21.5 132.516 21.5C131.733 21.5 131.1 21.65 130.616 21.95C130.133 22.25 129.716 22.6417 129.366 23.125L127.341 21.325C127.775 20.5917 128.45 19.9917 129.366 19.525C130.3 19.0417 131.491 18.8 132.941 18.8C134.708 18.8 136.083 19.2083 137.066 20.025C138.066 20.825 138.566 22.0417 138.566 23.675V29.325H139.991V32H137.866ZM132.541 29.875C133.191 29.875 133.741 29.7167 134.191 29.4C134.641 29.0833 134.866 28.625 134.866 28.025V26.475H132.891C131.375 26.475 130.616 26.9833 130.616 28V28.5C130.616 28.95 130.791 29.2917 131.141 29.525C131.491 29.7583 131.958 29.875 132.541 29.875Z" fill="white"/>
</g>
<path d="M14.12 35.785L10.205 37.585V33.85L14.12 32.005V28.405L10.205 30.205V26.425L14.12 24.625V14.59H18.935V22.375L26.72 18.775V22.555L18.935 26.155V29.8L26.72 26.155V29.935L18.935 33.535V41.77H21.14C23.54 41.77 25.37 40.99 26.63 39.43C27.92 37.84 28.565 35.455 28.565 32.275H33.38C33.38 34.195 33.14 35.995 32.66 37.675C32.18 39.325 31.46 40.78 30.5 42.04C29.54 43.27 28.31 44.245 26.81 44.965C25.34 45.655 23.615 46 21.635 46H14.12V35.785Z" fill="#01B221"/>
<path d="M14.12 35.785L10.205 37.585V33.85L14.12 32.005V28.405L10.205 30.205V26.425L14.12 24.625V14.59H18.935V22.375L26.72 18.775V22.555L18.935 26.155V29.8L26.72 26.155V29.935L18.935 33.535V41.77H21.14C23.54 41.77 25.37 40.99 26.63 39.43C27.92 37.84 28.565 35.455 28.565 32.275H33.38C33.38 34.195 33.14 35.995 32.66 37.675C32.18 39.325 31.46 40.78 30.5 42.04C29.54 43.27 28.31 44.245 26.81 44.965C25.34 45.655 23.615 46 21.635 46H14.12V35.785Z" fill="url(#paint0_linear)"/>
<defs>
<linearGradient id="paint0_linear" x1="37.4545" y1="59" x2="26.1327" y2="46.7012" gradientUnits="userSpaceOnUse">
<stop/>
<stop offset="1" stop-color="white" stop-opacity="0"/>
</linearGradient>
<clipPath id="clip0">
<rect y="12" width="160" height="36" fill="white"/>
</clipPath>
</defs>
</svg>
