<svg width="24" height="24" viewBox="0 0 24 24" fill="none" xmlns="http://www.w3.org/2000/svg">
<g clip-path="url(#clip0)">
<path d="M13.3254 12.001L23.7249 1.60144C24.0911 1.2353 24.0911 0.641674 23.7249 0.275581C23.3588 -0.0905115 22.7652 -0.0905584 22.3991 0.275581L11.9995 10.6752L1.59997 0.275581C1.23383 -0.0905584 0.64021 -0.0905584 0.274117 0.275581C-0.0919764 0.641721 -0.0920233 1.23535 0.274117 1.60144L10.6736 12.001L0.274117 22.4005C-0.0920233 22.7667 -0.0920233 23.3603 0.274117 23.7264C0.457163 23.9094 0.697116 24.0009 0.937068 24.0009C1.17702 24.0009 1.41693 23.9094 1.60002 23.7264L11.9995 13.3269L22.399 23.7264C22.5821 23.9094 22.822 24.0009 23.062 24.0009C23.3019 24.0009 23.5418 23.9094 23.7249 23.7264C24.0911 23.3603 24.0911 22.7666 23.7249 22.4005L13.3254 12.001Z" fill="#03E98F"/>
</g>
<defs>
<clipPath id="clip0">
<rect width="24" height="24" fill="white"/>
</clipPath>
</defs>
</svg>
