<svg width="14" height="15" viewBox="0 0 14 15" fill="none" xmlns="http://www.w3.org/2000/svg">
<path d="M9.01001 2.62354H2.50172C1.89103 2.62354 1.39502 3.15497 1.39502 3.80928V13.8144C1.39502 14.4687 1.89103 15.0001 2.50172 15.0001H9.01001C9.6207 15.0001 10.1167 14.4687 10.1167 13.8144V3.80928C10.1138 3.15497 9.61783 2.62354 9.01001 2.62354ZM9.33973 13.8113C9.33973 14.0079 9.19064 14.1677 9.00714 14.1677H2.49885C2.31536 14.1677 2.16627 14.0079 2.16627 13.8113V3.80928C2.16627 3.61268 2.31536 3.45294 2.49885 3.45294H9.00714C9.19064 3.45294 9.33973 3.61268 9.33973 3.80928V13.8113Z" fill="black"/>
<path d="M11.4988 0H4.99049C4.3798 0 3.88379 0.531436 3.88379 1.18575C3.88379 1.41614 4.05581 1.60045 4.27085 1.60045C4.48588 1.60045 4.6579 1.41614 4.6579 1.18575C4.6579 0.989146 4.80699 0.829408 4.99049 0.829408H11.4988C11.6823 0.829408 11.8314 0.989146 11.8314 1.18575V11.1909C11.8314 11.3875 11.6823 11.5472 11.4988 11.5472C11.2837 11.5472 11.1117 11.7315 11.1117 11.9619C11.1117 12.1923 11.2837 12.3766 11.4988 12.3766C12.1095 12.3766 12.6055 11.8452 12.6055 11.1909V1.18575C12.6055 0.531436 12.1095 0 11.4988 0Z" fill="black"/>
</svg>
