<svg width="24" height="24" viewBox="0 0 24 24" fill="none" xmlns="http://www.w3.org/2000/svg">
<g clip-path="url(#clip0)">
<path d="M22.9088 0H14.1816C13.5791 0 13.0906 0.488438 13.0906 1.09092C13.0906 1.69341 13.5791 2.18184 14.1816 2.18184H20.2752L9.04659 13.4105C8.62054 13.8365 8.62054 14.5272 9.04659 14.9532C9.25954 15.1662 9.53873 15.2727 9.81791 15.2727C10.0971 15.2727 10.3763 15.1663 10.5893 14.9532L21.818 3.72459V9.8182C21.818 10.4207 22.3064 10.9091 22.9089 10.9091C23.5114 10.9091 23.9998 10.4207 23.9998 9.8182V1.09092C23.9997 0.488438 23.5113 0 22.9088 0Z" fill="black"/>
<path d="M18.5454 10.909C17.943 10.909 17.4545 11.3974 17.4545 11.9999V21.8181H2.1818V6.54532H12C12.6025 6.54532 13.0909 6.05688 13.0909 5.4544C13.0909 4.85192 12.6025 4.36353 12 4.36353H1.09092C0.488438 4.36353 0 4.85196 0 5.45445V22.909C0 23.5114 0.488438 23.9999 1.09092 23.9999H18.5455C19.148 23.9999 19.6364 23.5114 19.6364 22.909V11.9999C19.6364 11.3974 19.1479 10.909 18.5454 10.909Z" fill="black"/>
</g>
<defs>
<clipPath id="clip0">
<rect width="24" height="24" fill="white"/>
</clipPath>
</defs>
</svg>
