<svg width="117" height="55" viewBox="0 0 117 55" fill="none" xmlns="http://www.w3.org/2000/svg">
<path fill-rule="evenodd" clip-rule="evenodd" d="M30 39.9525L32.5904 33.6588H33.5462L35.8419 39.9525H35.0469L34.2072 37.6024H31.715L30.7771 39.9525H30ZM31.9384 37.0148H34.0107L33.0281 34.1751L31.9384 37.0148ZM36.7436 39.9525V35.092H37.4492V35.7418C37.6725 35.3769 38.1549 34.9852 38.8427 34.9852C39.1285 34.9852 39.325 35.0386 39.4144 35.0653L39.2982 35.6617C39.1464 35.6261 39.0035 35.5994 38.7176 35.5994C38.1281 35.5994 37.6815 36.0178 37.4492 36.3739V39.9525H36.7436ZM42.2348 40.0593C41.3237 40.0593 40.752 39.7478 40.752 38.5994V35.6884H40.0374V35.092H40.752V34.095H41.4398V35.092H42.9672V35.6884H41.4487V38.5727C41.4487 39.2582 41.7614 39.4451 42.3241 39.4451C42.5921 39.4451 42.9404 39.3739 43.1459 39.3027L43.2709 39.8813C43.0208 39.9703 42.5653 40.0593 42.2348 40.0593ZM44.2773 39.9525V35.092H44.9919V39.9525H44.2773ZM44.6257 34.184L44.0451 33.5875L44.6257 33L45.2242 33.5875L44.6257 34.184ZM46.9663 41.7774V35.6617H46.2517V35.092H46.9663V34.7626C46.9663 33.5786 47.6719 33.1424 48.5473 33.1424C48.8867 33.1424 49.1011 33.178 49.2976 33.2404L49.1726 33.8101C49.0386 33.7745 48.8867 33.7389 48.5562 33.7389C47.9399 33.7389 47.6719 34.0237 47.6719 34.7537V35.092H48.717V35.6617H47.6719V41.7774H46.9663ZM50.1005 39.9525V35.092H50.8151V39.9525H50.1005ZM50.4489 34.184L49.8683 33.5875L50.4489 33L51.0474 33.5875L50.4489 34.184ZM54.477 40.0593C52.8245 40.0593 52.0473 39.276 52.0473 37.6202C52.0473 35.8754 52.9406 34.9674 54.3609 34.9674C54.9683 34.9674 55.4149 35.1276 55.6561 35.2611L55.4417 35.822C55.2452 35.7418 54.8521 35.5816 54.3609 35.5816C53.3426 35.5816 52.7709 36.2315 52.7709 37.5846C52.7709 38.7863 53.2175 39.454 54.5484 39.454C54.9772 39.454 55.2362 39.3828 55.5399 39.3027L55.6471 39.8724C55.3524 39.9703 55.0219 40.0593 54.477 40.0593ZM56.9872 39.9525V35.092H57.7019V39.9525H56.9872ZM57.3356 34.184L56.755 33.5875L57.3356 33L57.9341 33.5875L57.3356 34.184ZM60.3754 40.0326C59.4911 40.0326 58.9194 39.543 58.9194 38.6617C58.9194 37.451 59.9913 37.2018 60.7863 37.184L61.9475 37.1662V36.543C61.9475 35.7685 61.5813 35.5816 60.8131 35.5816C60.2861 35.5816 59.893 35.6706 59.4911 35.822L59.3303 35.27C59.7055 35.1098 60.2503 34.9674 60.9114 34.9674C61.9832 34.9674 62.6353 35.3591 62.6353 36.3116V39C62.6353 39.365 62.9301 39.4451 63.1623 39.4451L63.1355 39.9881C63.0909 39.997 63.0016 40.0059 62.939 40.0059C62.5103 40.0059 62.0636 39.8279 62.0011 39.3917C61.7599 39.5786 61.2151 40.0326 60.3754 40.0326ZM60.5362 39.4629C61.0721 39.4629 61.5813 39.1869 61.9475 38.9199V37.6558L60.7774 37.7003C60.0181 37.727 59.5983 38.0653 59.5983 38.635C59.5983 39.1958 60.0002 39.4629 60.5362 39.4629ZM64.2906 39.9525V33.2404H64.9962V39.9525H64.2906ZM69.3225 39.9525V33.6588H70.055V39.9525H69.3225ZM71.7517 39.9525V35.092H72.4574V35.6439C72.9665 35.27 73.4399 34.9674 74.1992 34.9674C75.5837 34.9674 75.6731 36 75.6731 36.819V39.9525H74.9853V36.9525C74.9853 36.1157 74.8513 35.5905 74.0205 35.5905C73.3953 35.5905 72.8951 35.8843 72.4574 36.1869V39.9525H71.7517ZM78.9394 40.0593C78.0283 40.0593 77.4566 39.7478 77.4566 38.5994V35.6884H76.742V35.092H77.4566V34.095H78.1444V35.092H79.6718V35.6884H78.1533V38.5727C78.1533 39.2582 78.466 39.4451 79.0287 39.4451C79.2967 39.4451 79.645 39.3739 79.8505 39.3027L79.9755 39.8813C79.7254 39.9703 79.2699 40.0593 78.9394 40.0593ZM83.0275 40.0593C81.6072 40.0593 80.714 39.4718 80.714 37.6202C80.714 35.724 81.6519 34.9674 82.8399 34.9674C84.0815 34.9674 84.6443 35.7774 84.6443 37.3976V37.6558H81.4286C81.4464 39.1602 82.2146 39.454 83.1436 39.454C83.617 39.454 83.9833 39.3739 84.4388 39.2315L84.5639 39.8012C84.1976 39.9525 83.6438 40.0593 83.0275 40.0593ZM81.4375 37.1306H83.9118C83.9118 36.1424 83.5634 35.5193 82.7684 35.5193C82.0628 35.5193 81.5179 36.0445 81.4375 37.1306ZM86.008 39.9525V33.2404H86.7136V39.9525H86.008ZM88.3632 39.9525V33.2404H89.0688V39.9525H88.3632ZM90.7184 39.9525V35.092H91.433V39.9525H90.7184ZM91.0667 34.184L90.4861 33.5875L91.0667 33L91.6652 33.5875L91.0667 34.184ZM94.6335 42C94.1065 42 93.4812 41.8932 93.115 41.7329L93.2579 41.1098C93.6777 41.2522 94.169 41.368 94.6871 41.368C95.4017 41.368 96.0181 41.1365 96.0181 40.095V39.6053C95.6697 39.8813 95.3839 40.0148 94.83 40.0148C93.91 40.0148 92.7488 39.6677 92.7488 37.6291C92.7488 35.7329 93.7671 34.9674 95.1605 34.9674C95.6161 34.9674 96.2235 35.0564 96.7059 35.1721V40.2463C96.7059 41.4303 95.9019 42 94.6335 42ZM94.9015 39.4451C95.4374 39.4451 95.7411 39.2226 96.0091 39.0089V35.7151C95.8841 35.6795 95.5536 35.5816 95.1159 35.5816C93.8564 35.5816 93.4455 36.4273 93.4455 37.5846C93.4455 38.9199 93.9993 39.4451 94.9015 39.4451ZM100.317 40.0593C98.8971 40.0593 98.0038 39.4718 98.0038 37.6202C98.0038 35.724 98.9417 34.9674 100.13 34.9674C101.371 34.9674 101.934 35.7774 101.934 37.3976V37.6558H98.7184C98.7363 39.1602 99.5045 39.454 100.433 39.454C100.907 39.454 101.273 39.3739 101.729 39.2315L101.854 39.8012C101.487 39.9525 100.934 40.0593 100.317 40.0593ZM98.7273 37.1306H101.202C101.202 36.1424 100.853 35.5193 100.058 35.5193C99.3526 35.5193 98.8077 36.0445 98.7273 37.1306ZM103.298 39.9525V35.092H104.003V35.6439C104.513 35.27 104.986 34.9674 105.745 34.9674C107.13 34.9674 107.219 36 107.219 36.819V39.9525H106.531V36.9525C106.531 36.1157 106.397 35.5905 105.567 35.5905C104.941 35.5905 104.441 35.8843 104.003 36.1869V39.9525H103.298ZM110.902 40.0593C109.25 40.0593 108.472 39.276 108.472 37.6202C108.472 35.8754 109.366 34.9674 110.786 34.9674C111.393 34.9674 111.84 35.1276 112.081 35.2611L111.867 35.822C111.67 35.7418 111.277 35.5816 110.786 35.5816C109.768 35.5816 109.196 36.2315 109.196 37.5846C109.196 38.7863 109.643 39.454 110.974 39.454C111.402 39.454 111.661 39.3828 111.965 39.3027L112.072 39.8724C111.777 39.9703 111.447 40.0593 110.902 40.0593ZM115.383 40.0593C113.963 40.0593 113.07 39.4718 113.07 37.6202C113.07 35.724 114.008 34.9674 115.196 34.9674C116.437 34.9674 117 35.7774 117 37.3976V37.6558H113.784C113.802 39.1602 114.57 39.454 115.499 39.454C115.973 39.454 116.339 39.3739 116.795 39.2315L116.92 39.8012C116.553 39.9525 116 40.0593 115.383 40.0593ZM113.793 37.1306H116.268C116.268 36.1424 115.919 35.5193 115.124 35.5193C114.419 35.5193 113.874 36.0445 113.793 37.1306Z" fill="black"/>
<path d="M39.76 24.16H36.24V30H33.22V16.04H36.24V21.7H39.76V16.04H42.78V30H39.76V24.16ZM50.6322 18.36C49.9655 18.36 49.4989 18.2267 49.2322 17.96C48.9789 17.68 48.8522 17.3467 48.8522 16.96V16.38C48.8522 15.98 48.9789 15.6467 49.2322 15.38C49.4989 15.1133 49.9655 14.98 50.6322 14.98C51.2989 14.98 51.7589 15.1133 52.0122 15.38C52.2789 15.6467 52.4122 15.98 52.4122 16.38V16.96C52.4122 17.3467 52.2789 17.68 52.0122 17.96C51.7589 18.2267 51.2989 18.36 50.6322 18.36ZM45.8722 27.7H49.1522V21.98H45.8722V19.68H52.1122V27.7H55.1522V30H45.8722V27.7ZM64.0166 30V16.04H67.0366V27.54H73.0366V30H64.0166ZM80.8088 18.36C80.1421 18.36 79.6754 18.2267 79.4088 17.96C79.1554 17.68 79.0288 17.3467 79.0288 16.96V16.38C79.0288 15.98 79.1554 15.6467 79.4088 15.38C79.6754 15.1133 80.1421 14.98 80.8088 14.98C81.4754 14.98 81.9354 15.1133 82.1888 15.38C82.4554 15.6467 82.5888 15.98 82.5888 16.38V16.96C82.5888 17.3467 82.4554 17.68 82.1888 17.96C81.9354 18.2267 81.4754 18.36 80.8088 18.36ZM76.0488 27.7H79.3288V21.98H76.0488V19.68H82.2888V27.7H85.3288V30H76.0488V27.7ZM87.6409 27.7H90.0209V21.98H87.6409V19.68H92.9809V22.6H93.1209C93.2143 22.2267 93.3409 21.8667 93.5009 21.52C93.6743 21.16 93.8876 20.8467 94.1409 20.58C94.4076 20.3 94.7276 20.08 95.1009 19.92C95.4743 19.76 95.9143 19.68 96.4209 19.68H97.4009V22.4H95.2009C94.4676 22.4 93.9143 22.62 93.5409 23.06C93.1676 23.4867 92.9809 24.0133 92.9809 24.64V27.7H96.3809V30H87.6409V27.7ZM107.893 30C107.28 30 106.786 29.8467 106.413 29.54C106.04 29.22 105.82 28.7667 105.753 28.18H105.653C105.466 28.86 105.093 29.3733 104.533 29.72C103.986 30.0667 103.313 30.24 102.513 30.24C101.513 30.24 100.706 29.9733 100.093 29.44C99.4931 28.8933 99.1931 28.1333 99.1931 27.16C99.1931 26.08 99.5865 25.28 100.373 24.76C101.16 24.24 102.313 23.98 103.833 23.98H105.493V23.46C105.493 22.8467 105.346 22.3867 105.053 22.08C104.773 21.76 104.293 21.6 103.613 21.6C102.986 21.6 102.48 21.72 102.093 21.96C101.706 22.2 101.373 22.5133 101.093 22.9L99.4731 21.46C99.8198 20.8733 100.36 20.3933 101.093 20.02C101.84 19.6333 102.793 19.44 103.953 19.44C105.366 19.44 106.466 19.7667 107.253 20.42C108.053 21.06 108.453 22.0333 108.453 23.34V27.86H109.593V30H107.893ZM103.633 28.3C104.153 28.3 104.593 28.1733 104.953 27.92C105.313 27.6667 105.493 27.3 105.493 26.82V25.58H103.913C102.7 25.58 102.093 25.9867 102.093 26.8V27.2C102.093 27.56 102.233 27.8333 102.513 28.02C102.793 28.2067 103.166 28.3 103.633 28.3Z" fill="black"/>
<path d="M6.12 31.785L2.205 33.585V29.85L6.12 28.005V24.405L2.205 26.205V22.425L6.12 20.625V10.59H10.935V18.375L18.72 14.775V18.555L10.935 22.155V25.8L18.72 22.155V25.935L10.935 29.535V37.77H13.14C15.54 37.77 17.37 36.99 18.63 35.43C19.92 33.84 20.565 31.455 20.565 28.275H25.38C25.38 30.195 25.14 31.995 24.66 33.675C24.18 35.325 23.46 36.78 22.5 38.04C21.54 39.27 20.31 40.245 18.81 40.965C17.34 41.655 15.615 42 13.635 42H6.12V31.785Z" fill="#01B221"/>
<path d="M6.12 31.785L2.205 33.585V29.85L6.12 28.005V24.405L2.205 26.205V22.425L6.12 20.625V10.59H10.935V18.375L18.72 14.775V18.555L10.935 22.155V25.8L18.72 22.155V25.935L10.935 29.535V37.77H13.14C15.54 37.77 17.37 36.99 18.63 35.43C19.92 33.84 20.565 31.455 20.565 28.275H25.38C25.38 30.195 25.14 31.995 24.66 33.675C24.18 35.325 23.46 36.78 22.5 38.04C21.54 39.27 20.31 40.245 18.81 40.965C17.34 41.655 15.615 42 13.635 42H6.12V31.785Z" fill="url(#paint0_linear)"/>
<defs>
<linearGradient id="paint0_linear" x1="29.4545" y1="55" x2="18.1327" y2="42.7012" gradientUnits="userSpaceOnUse">
<stop/>
<stop offset="1" stop-color="white" stop-opacity="0"/>
</linearGradient>
</defs>
</svg>
