<svg fill="none" height="21" viewBox="0 0 33 21" width="33" xmlns="http://www.w3.org/2000/svg"><path d="m20.8895 10.4151c.0168 2.0802-.5816 4.1186-1.719 5.8564-1.1375 1.7379-2.7629 3.0969-4.6699 3.9046-1.9071.8078-4.0098 1.0279-6.04144.6324-2.03165-.3955-3.90065-1.3888-5.36986-2.8538s-2.472417-3.3357-2.88233-5.3748-.20805966-4.15461.57995-6.07817c.78801-1.92356 2.12666-3.56847 3.8461-4.72602 1.71945-1.157543 3.74218-1.77555546 5.81158-1.77562347 1.3661-.00558629 2.7199.25937547 3.9842.77975947 1.2642.520384 2.4141 1.285994 3.384 2.253124s1.7408 2.11683 2.2687 3.38346.8025 2.62539.808 3.99867z" fill="#f59d1a" transform="matrix(.976994 0 0 .976994 12.5907 0)"/><path d="m20.8895 10.4152c.0168 2.0799-.5814 4.1179-1.7186 5.8556-1.1371 1.7377-2.7621 3.0967-4.6687 3.9047-1.9066.8079-4.009 1.0284-6.04045.6335-2.03146-.3949-3.90046-1.3875-5.36995-2.8518s-2.473251-3.3343-2.883959-5.3729c-.410707-2.0386-.20985897-4.15395.57707-6.07763.786929-1.92369 2.124479-3.56908 3.842989-4.72748 1.71852-1.158398 3.74057-1.77760269 5.8097-1.7790723 1.3667-.00651827 2.7212.2577563 3.9863.7777213 1.265.519961 2.4158 1.285431 3.3864 2.252651.9707.96722 1.7422 2.11724 2.2706 3.38433.5283 1.2671.8031 2.62643.8086 4.00038z" fill="#e7001b" transform="scale(.976994)"/><path d="m4.00425-.00000059c-1.24614.96786359-2.25503 2.20997059-2.94917 3.63092059-.694146 1.42095-1.05507993 2.98293-1.05507993 4.56597s.36093393 3.14501 1.05507993 4.56601c.69414 1.4209 1.70303 2.663 2.94917 3.6309 1.24613-.9679 2.25502-2.21 2.94916-3.6309.69415-1.421 1.05508-2.98297 1.05508-4.56601s-.36093-3.14502-1.05508-4.56597c-.69414-1.42095-1.70303-2.663057-2.94916-3.63092059z" fill="#fc5f01" transform="matrix(.976994 0 0 .976994 12.584 2.16378)"/></svg>