<svg width="36" height="36" viewBox="0 0 36 36" fill="none" xmlns="http://www.w3.org/2000/svg">
<g clip-path="url(#clip0)">
<path d="M35.25 6.75H0.750023C0.336023 6.75 0 7.08602 0 7.50002C0 7.91402 0.336023 8.25005 0.750023 8.25005H35.25C35.664 8.25005 36.0001 7.91402 36.0001 7.50002C36.0001 7.08602 35.664 6.75 35.25 6.75Z" fill="#03E98F"/>
<path d="M35.25 17.25H0.750023C0.336023 17.25 0 17.586 0 18C0 18.414 0.336023 18.7501 0.750023 18.7501H35.25C35.664 18.7501 36.0001 18.414 36.0001 18C36.0001 17.586 35.664 17.25 35.25 17.25Z" fill="#03E98F"/>
<path d="M35.25 27.75H0.750023C0.336023 27.75 0 28.086 0 28.5C0 28.914 0.336023 29.25 0.750023 29.25H35.25C35.664 29.25 36.0001 28.914 36.0001 28.5C36 28.086 35.664 27.75 35.25 27.75Z" fill="#03E98F"/>
</g>
<defs>
<clipPath id="clip0">
<rect width="36" height="36" fill="white"/>
</clipPath>
</defs>
</svg>
