<svg width="14" height="13" viewBox="0 0 14 13" fill="none" xmlns="http://www.w3.org/2000/svg">
<path d="M14 0H0V2.09677H1.35484V3.77419H12.6452V2.09677H14V0ZM1.80645 2.53732C2.24814 2.62097 2.59677 2.9447 2.68685 3.35484H1.80645V2.53732ZM3.14321 3.35484C3.04365 2.71342 2.49721 2.20602 1.80645 2.11356V1.25806H4.75318C4.74646 1.32789 4.74194 1.39771 4.74194 1.46774C4.74194 2.24779 5.16213 2.93712 5.80206 3.35484H3.14321ZM6.58995 1.25806C6.68345 1.50153 6.93186 1.67742 7.22581 1.67742C7.3504 1.67742 7.45161 1.77141 7.45161 1.8871C7.45161 2.00279 7.3504 2.09677 7.22581 2.09677C7.10122 2.09677 7 2.00279 7 1.8871H6.54839C6.54839 2.16005 6.73781 2.39071 7 2.47753V2.93548H7.45161V2.47753C7.7138 2.39071 7.90323 2.16005 7.90323 1.8871C7.90323 1.54033 7.59925 1.25806 7.22581 1.25806H9.24472C9.2531 1.32768 9.25806 1.39771 9.25806 1.46774C9.25806 2.50835 8.34646 3.35484 7.22581 3.35484C6.10515 3.35484 5.19355 2.50835 5.19355 1.46774C5.19355 1.39771 5.19873 1.32768 5.20711 1.25806H6.58995ZM9.70968 1.46774C9.70968 1.39771 9.70516 1.32789 9.69843 1.25806H12.1935V2.11356C11.5028 2.20602 10.9564 2.71342 10.8568 3.35484H8.64956C9.28949 2.93712 9.70968 2.24779 9.70968 1.46774ZM11.3131 3.35484C11.4032 2.9447 11.7519 2.62097 12.1935 2.53732V3.35484H11.3131ZM13.5484 1.67742H12.6452V0.83871H1.35484V1.67742H0.451613V0.419355H13.5484V1.67742Z" fill="black"/>
<path d="M9.03191 5.24183C9.03191 4.89506 8.72793 4.61279 8.35449 4.61279C8.1804 4.61279 8.02306 4.67586 7.90288 4.7763C7.7827 4.67566 7.62536 4.61279 7.45127 4.61279C7.27717 4.61279 7.11983 4.67586 6.99965 4.7763C6.87947 4.67566 6.72214 4.61279 6.54804 4.61279C6.37394 4.61279 6.21661 4.67586 6.09643 4.7763C5.97625 4.67566 5.81891 4.61279 5.64481 4.61279C5.27137 4.61279 4.96739 4.89506 4.96739 5.24183V5.4515H1.35449V10.0644H4.51578V9.64505H3.14286C3.0433 9.00363 2.49687 8.49623 1.80611 8.40378V7.11213C2.49687 7.01968 3.0433 6.51228 3.14286 5.87086H5.5759C4.93597 6.28857 4.51578 6.97791 4.51578 7.75795C4.51578 8.538 4.93597 9.22733 5.5759 9.64505H4.96739V10.0644C4.96739 10.3802 5.07964 10.6928 5.2835 10.9449L5.64481 11.3923V11.7418H5.1932V12.9999H9.70933V11.7418H9.25772V11.3923L9.61903 10.9451C9.82289 10.6928 9.93514 10.3802 9.93514 10.0644H12.6448V5.4515H9.03191V5.24183ZM8.35449 5.03215C8.47908 5.03215 8.5803 5.12613 8.5803 5.24183V5.4515H8.12868V5.24183C8.12868 5.12613 8.2299 5.03215 8.35449 5.03215ZM7.45127 5.03215C7.57586 5.03215 7.67707 5.12613 7.67707 5.24183V5.4515H7.22546V5.24183C7.22546 5.12613 7.32667 5.03215 7.45127 5.03215ZM6.54804 5.03215C6.67263 5.03215 6.77385 5.12613 6.77385 5.24183V5.4515H6.32223V5.24183C6.32223 5.12613 6.42345 5.03215 6.54804 5.03215ZM5.41901 5.24183C5.41901 5.12613 5.52022 5.03215 5.64481 5.03215C5.7694 5.03215 5.87062 5.12613 5.87062 5.24183V5.4515H5.41901V5.24183ZM2.68651 9.64505H1.80611V8.82753C2.24779 8.91118 2.59643 9.23491 2.68651 9.64505ZM1.80611 6.68837V5.87086H2.68651C2.59643 6.281 2.24779 6.60473 1.80611 6.68837ZM4.96739 7.75795C4.96739 6.71735 5.879 5.87086 6.99965 5.87086C8.05911 5.87086 8.93047 6.62756 9.02265 7.58954C8.7652 7.67871 8.5803 7.90743 8.5803 8.17731V9.4922C8.47214 9.5312 8.37323 9.58465 8.28062 9.64505H6.99965C5.879 9.64505 4.96739 8.79856 4.96739 7.75795ZM9.25772 12.5805H5.64481V12.1612H9.25772V12.5805ZM9.48352 10.0644C9.48352 10.2898 9.40337 10.5133 9.25772 10.6934L8.8061 11.2526V11.7418H6.09643V11.2526L5.64481 10.6932C5.49916 10.5133 5.41901 10.2898 5.41901 10.0644H7.86881C7.74819 10.259 7.67707 10.4821 7.67707 10.7192V10.9031H8.12868V10.7192C8.12868 10.3065 8.42969 9.94841 8.86079 9.84848L9.03191 9.80855V8.17731C9.03191 8.06162 9.13313 7.96763 9.25772 7.96763C9.38231 7.96763 9.48352 8.06162 9.48352 8.17731V10.0644ZM9.47404 7.58411C9.41671 6.87624 9.01515 6.25704 8.4234 5.87086H10.8564C10.956 6.51228 11.5024 7.01968 12.1932 7.11213V8.40378C11.5024 8.49623 10.956 9.00363 10.8564 9.64505H9.93514V8.17731C9.93514 7.90119 9.74119 7.66847 9.47404 7.58411ZM11.3128 9.64505C11.4029 9.23491 11.7515 8.91118 12.1932 8.82753V9.64505H11.3128ZM12.1932 6.68837C11.7515 6.60473 11.4029 6.281 11.3128 5.87086H12.1932V6.68837Z" fill="black"/>
<path d="M6.99968 7.54859C6.87509 7.54859 6.77388 7.45461 6.77388 7.33891C6.77388 7.22322 6.87509 7.12924 6.99968 7.12924C7.12427 7.12924 7.22549 7.22322 7.22549 7.33891H7.6771C7.6771 7.06597 7.48768 6.8353 7.22549 6.74848V6.29053H6.77388V6.74848C6.51169 6.8353 6.32227 7.06597 6.32227 7.33891C6.32227 7.68568 6.62624 7.96795 6.99968 7.96795C7.12427 7.96795 7.22549 8.06193 7.22549 8.17762C7.22549 8.29332 7.12427 8.3873 6.99968 8.3873C6.87509 8.3873 6.77388 8.29332 6.77388 8.17762H6.32227C6.32227 8.45057 6.51169 8.68124 6.77388 8.76806V9.22601H7.22549V8.76806C7.48768 8.68124 7.6771 8.45057 7.6771 8.17762C7.6771 7.83086 7.37312 7.54859 6.99968 7.54859Z" fill="black"/>
</svg>
