<svg fill="none" height="17" viewBox="0 0 53 17" width="53" xmlns="http://www.w3.org/2000/svg" xmlns:xlink="http://www.w3.org/1999/xlink"><linearGradient id="a" gradientTransform="matrix(54.1331 0 0 54.4182 -.179545 -18.3985)" gradientUnits="userSpaceOnUse" x2="1"><stop offset="0" stop-color="#241e5c"/><stop offset="1" stop-color="#004d9f"/></linearGradient><path d="m20.4085.251731-7.1367 16.991769h-4.6326l-3.38055-13.46755c-.12521-.62932-.50083-1.13278-1.00165-1.51038-1.37727-.62932-2.87974-1.13278-4.257-1.384513l.125206-.503462h7.512354c1.00164 0 1.75288.755195 2.00329 1.636245l1.87805 9.81746 4.5074-11.579569zm18.0297 11.579569c0-4.53112-6.1351-4.78285-6.1351-6.79669 0-.62933.626-1.25866 1.8781-1.38452 1.3773-.12587 3.0049.12586 4.257.75519l.7512-3.650089c-1.252-.50346-2.7545-.755191-4.1318-.755191-4.3822 0-7.3871 2.39144-7.3871 5.66393 0 2.51731 2.2537 3.77596 3.8814 4.65697 1.6276.8811 2.3789 1.3846 2.3789 2.0139 0 1.1328-1.3773 1.6362-2.6293 1.6362-1.5025 0-3.1302-.3776-4.5075-1.0069l-.8764 3.6501c1.5025.6293 3.2554.8811 4.883.8811 4.6326.1258 7.6376-2.2656 7.6376-5.664zm11.5189 5.5381h4.0066l-3.631-16.991805h-3.7561c-.7513 0-1.5025.50346-1.8781 1.258655l-6.5107 15.85905h4.6326l.8764-2.5173h5.6343zm-4.883-6.0415 2.3789-6.29329 1.2521 6.29329zm-18.5305-11.076169-3.6309 16.991769h-4.3822l3.6309-16.991769z" fill="url(#a)" transform="scale(.971428)"/></svg>